<svg width="77" height="59" viewBox="0 0 77 59" fill="none" xmlns="http://www.w3.org/2000/svg">
<path d="M50.0059 19.3771L41.0524 10.5218C40.5382 10.0119 39.8611 9.73828 39.1463 9.73828H26.9575L30.6192 12.0516C30.8449 12.1884 31.0957 12.263 31.359 12.263H38.6823C39.0209 12.263 39.347 12.3998 39.5977 12.6361L40.8768 13.9047H37.4033C36.6759 13.9047 35.9988 14.1783 35.4847 14.6883L28.7382 21.3794L28.6253 21.4914L33.0645 20.3969C33.3027 20.3347 33.5284 20.2103 33.704 20.0362L37.328 16.4419H40.0366L37.0898 19.3646C36.5756 19.8745 36.2998 20.5461 36.2998 21.2675V31.2296L38.8579 27.2373V22.2873C38.8579 21.5909 39.1338 20.9441 39.6228 20.4466L42.971 17.1259H44.1247L47.385 20.3472L45.6671 22.051H41.4411L44.8645 25.4339C45.1404 25.7076 45.5918 25.7076 45.8677 25.4339L50.031 21.3048C50.2943 21.0436 50.4322 20.7078 50.4322 20.3347C50.4322 19.9616 50.2692 19.6258 50.0059 19.3771Z" fill="white"/>
<path d="M37.7292 35.8438C32.9013 35.8438 28.3619 33.9782 24.951 30.5953C21.5402 27.2124 19.6592 22.7102 19.6592 17.9219C19.6592 13.1336 21.5402 8.63137 24.951 5.24847C28.3619 1.86557 32.9013 0 37.7292 0C42.5571 0 47.0965 1.86557 50.5074 5.24847C53.9182 8.63137 55.7992 13.1336 55.7992 17.9219C55.7992 22.7102 53.9182 27.2124 50.5074 30.5953C47.0965 33.9782 42.5571 35.8438 37.7292 35.8438ZM37.7292 2.11431C28.9387 2.11431 21.791 9.20348 21.791 17.9219C21.791 26.6403 28.9387 33.7295 37.7292 33.7295C46.5197 33.7295 53.6674 26.6403 53.6674 17.9219C53.6674 9.20348 46.5197 2.11431 37.7292 2.11431Z" fill="white"/>
<path d="M49.4825 51.6994H44.8678C44.78 51.6994 44.7173 51.6372 44.7173 51.5501V42.2471C44.7173 42.1601 44.78 42.0979 44.8678 42.0979H49.4825C50.7991 42.0979 51.9403 42.5581 52.8808 43.5033C53.8213 44.4485 54.2978 45.5803 54.2978 46.8986C54.2978 48.217 53.8213 49.3487 52.8808 50.294C51.9403 51.2392 50.8117 51.6994 49.4825 51.6994ZM46.9619 44.3863V49.4109C46.9619 49.498 47.0246 49.5602 47.1124 49.5602H49.4825C50.1972 49.5602 50.7991 49.299 51.3007 48.7766C51.8023 48.2543 52.0531 47.62 52.0531 46.8862C52.0531 46.1524 51.8023 45.5305 51.3007 45.0082C50.7991 44.4858 50.1972 44.2246 49.4825 44.2246H47.1124C47.0246 44.2371 46.9619 44.2993 46.9619 44.3863Z" fill="#C41E3A"/>
<path d="M60.8311 51.6995C59.3765 51.6995 58.135 51.2269 57.1068 50.2941C56.0785 49.3488 55.5769 48.2046 55.5769 46.8365C55.5769 45.4685 56.0785 44.3367 57.1068 43.3915C58.135 42.4462 59.3765 41.9736 60.8311 41.9736C62.2732 41.9736 63.5021 42.4462 64.5304 43.3915C65.5587 44.3367 66.0728 45.4809 66.0728 46.8365C66.1355 49.4981 63.6275 51.7616 60.8311 51.6995ZM58.6993 48.7394C59.2887 49.2618 59.9909 49.523 60.8311 49.523C61.6713 49.523 62.361 49.2618 62.9504 48.7394C63.5397 48.2171 63.8282 47.5703 63.8282 46.8241C63.8282 46.0779 63.5397 45.456 62.9504 44.9212C62.3735 44.3989 61.6713 44.1253 60.8311 44.1253C59.9909 44.1253 59.3013 44.3989 58.6993 44.9212C58.11 45.4436 57.8215 46.0779 57.8215 46.8241C57.8215 47.5828 58.11 48.2171 58.6993 48.7394Z" fill="#C41E3A"/>
<path d="M72.1547 45.0081L74.4119 42.1227C74.437 42.0854 74.4872 42.0605 74.5373 42.0605H76.8447C76.9701 42.0605 77.0453 42.2098 76.9701 42.3093L73.4589 46.7867C73.4213 46.8364 73.4213 46.9235 73.4589 46.9732L76.9701 51.4506C77.0453 51.5501 76.9701 51.6993 76.8447 51.6993H74.5373C74.4872 51.6993 74.4495 51.6745 74.4119 51.6371L72.1547 48.7642C72.092 48.6895 71.9792 48.6895 71.9165 48.7642L69.6468 51.6371C69.6217 51.6745 69.5715 51.6993 69.5214 51.6993H67.214C67.0886 51.6993 67.0134 51.5501 67.0886 51.4506L70.5998 46.9732C70.6374 46.9235 70.6374 46.8364 70.5998 46.7867L67.0886 42.3093C67.0134 42.2098 67.0886 42.0605 67.214 42.0605H69.5214C69.5715 42.0605 69.6091 42.0854 69.6468 42.1227L71.9165 45.0081C71.9666 45.0952 72.092 45.0952 72.1547 45.0081Z" fill="#C41E3A"/>
<path d="M38.0586 41.6626L38.021 46.6872L40.7798 51.6247C40.8049 51.6745 40.855 51.6994 40.9177 51.6994H43.037C43.1498 51.6994 43.2251 51.575 43.1749 51.4755L38.0586 41.6626Z" fill="#C41E3A"/>
<path d="M37.0554 51.6993H37.9959L38.021 49.4109L36.9174 51.4754C36.8673 51.5749 36.9425 51.6993 37.0554 51.6993Z" fill="#C41E3A"/>
<path d="M0 51.5501V42.2471C0 42.1601 0.0752391 42.0979 0.150479 42.0979H6.38281C7.26061 42.0979 8.013 42.4088 8.62746 43.0307C9.25445 43.6525 9.56795 44.3988 9.56795 45.2694C9.56795 46.14 9.25445 46.8862 8.62746 47.5081C8.013 48.1299 7.26061 48.4408 6.38281 48.4408H2.40766C2.31988 48.4408 2.25718 48.503 2.25718 48.5901V51.5501C2.25718 51.6372 2.18194 51.6994 2.10671 51.6994H0.163019C0.0752399 51.6994 0 51.6372 0 51.5501ZM2.24464 46.2146C2.24464 46.3016 2.31988 46.3638 2.39512 46.3638H6.0317C6.82171 46.3638 7.31077 45.8912 7.31077 45.2445C7.31077 44.5978 6.80917 44.1127 6.0317 44.1127H2.39512C2.30734 44.1127 2.24464 44.1749 2.24464 44.262V46.2146Z" fill="white"/>
<path d="M12.8535 50.1945L12.1011 51.6248C12.076 51.6745 12.0258 51.7118 11.9631 51.7118H9.81881C9.70595 51.7118 9.63072 51.5875 9.68088 51.488L14.584 41.9362C14.6467 41.8243 14.7972 41.8243 14.8599 41.9362L19.926 51.488C19.9761 51.5875 19.9009 51.7118 19.788 51.7118H17.6186C17.5559 51.7118 17.5058 51.687 17.4807 51.6372L16.7032 50.2069C16.6781 50.1572 16.628 50.1323 16.5653 50.1323H12.9914C12.9287 50.1074 12.8786 50.1323 12.8535 50.1945ZM14.6091 46.1524L13.6435 48.2419C13.5933 48.3414 13.6686 48.4533 13.7814 48.4533L15.7377 48.4409C15.8505 48.4409 15.9258 48.3289 15.8756 48.217L14.8849 46.1276C14.8222 46.0281 14.6592 46.0281 14.6091 46.1524Z" fill="white"/>
<path d="M28.4406 51.6496L25.8197 48.503C25.7946 48.4657 25.7445 48.4533 25.7069 48.4533H23.9513C23.8635 48.4533 23.8008 48.5155 23.8008 48.6025V51.5626C23.8008 51.6496 23.7381 51.7118 23.6503 51.7118H21.7066C21.6189 51.7118 21.5562 51.6496 21.5562 51.5626V42.2596C21.5562 42.1725 21.6189 42.1104 21.7066 42.1104H27.6882C28.566 42.1104 29.3184 42.4213 29.9454 43.0431C30.5723 43.665 30.8858 44.4112 30.8858 45.2818C30.8858 46.028 30.6601 46.6872 30.1962 47.2469C29.7823 47.7444 29.2682 48.0802 28.6412 48.2543C28.5409 48.2792 28.4907 48.416 28.566 48.503L31.0489 51.4755C31.1366 51.575 31.0614 51.7243 30.936 51.7243H28.5534C28.5158 51.6994 28.4782 51.6869 28.4406 51.6496ZM23.8008 46.2146C23.8008 46.3017 23.8635 46.3639 23.9513 46.3639H27.3872C28.1772 46.3639 28.6287 45.8788 28.6287 45.2196C28.6287 44.548 28.1647 44.063 27.3872 44.063H23.9513C23.8635 44.063 23.8008 44.1252 23.8008 44.2122V46.2146Z" fill="white"/>
<path d="M33.0802 51.6993H35.2245C35.2872 51.6993 35.3374 51.6745 35.3624 51.6123L37.9958 46.7121C38.0084 46.6872 38.0084 46.6623 38.0084 46.6374L38.046 41.6501L32.9297 51.463C32.8921 51.575 32.9673 51.6993 33.0802 51.6993Z" fill="white"/>
<path d="M38.0209 49.4109L37.9958 51.6993H38.9865C39.0994 51.6993 39.1746 51.5749 39.1244 51.4754L38.0209 49.4109Z" fill="white"/>
<path d="M12.9287 58.8882V55.4058H13.4679V58.3534H15.863V58.8882H12.9287Z" fill="white"/>
<path d="M18.4966 58.8879C17.9699 58.8879 17.5185 58.7138 17.1297 58.3905C16.7535 58.0547 16.5654 57.6442 16.5654 57.1592C16.5654 56.8358 16.6532 56.5373 16.8288 56.2762C17.0043 56.0025 17.2426 55.7911 17.5435 55.6543C17.8445 55.505 18.158 55.4304 18.4966 55.4304C19.0233 55.4304 19.4747 55.6045 19.8634 55.9403C20.2396 56.2761 20.4277 56.6866 20.4277 57.1716C20.4277 57.6567 20.2396 58.0671 19.8509 58.4029C19.4747 58.7263 19.0233 58.8879 18.4966 58.8879ZM17.5059 58.0049C17.7818 58.2412 18.1078 58.3656 18.4966 58.3656C18.8853 58.3656 19.2113 58.2412 19.4747 58.0049C19.7506 57.7686 19.8885 57.4825 19.8885 57.1592C19.8885 56.8358 19.7506 56.5373 19.4747 56.3135C19.1988 56.0772 18.8728 55.9528 18.4966 55.9528C18.1078 55.9528 17.7818 56.0772 17.5059 56.3135C17.23 56.5498 17.1046 56.8358 17.1046 57.1592C17.1046 57.4825 17.23 57.7686 17.5059 58.0049Z" fill="white"/>
<path d="M21.2175 57.1467C21.2175 56.8234 21.3053 56.5249 21.4809 56.2637C21.6564 55.9901 21.8947 55.7786 22.1956 55.6418C22.4966 55.4926 22.8101 55.418 23.1487 55.418C23.4747 55.418 23.7882 55.4926 24.0892 55.6294C24.3901 55.7662 24.6158 55.9776 24.7914 56.2264L24.3525 56.5249C24.1017 56.1518 23.6377 55.9403 23.1612 55.9403C22.7725 55.9403 22.4464 56.0647 22.1706 56.301C21.8947 56.5373 21.7693 56.8234 21.7693 57.1467C21.7693 57.4701 21.9072 57.7686 22.1706 57.9925C22.4339 58.2163 22.7725 58.3531 23.1612 58.3531C23.6127 58.3531 24.0515 58.1666 24.3149 57.8308V57.5572H22.9982V57.0224H24.829V58.0049C24.4152 58.5894 23.8509 58.8879 23.1487 58.8879C22.622 58.8879 22.1706 58.7138 21.7818 58.378C21.3931 58.0422 21.2175 57.6318 21.2175 57.1467Z" fill="white"/>
<path d="M26.3339 55.418V58.9004H25.7947V55.418H26.3339Z" fill="white"/>
<path d="M27.8764 58.3907C27.4877 58.0424 27.2996 57.632 27.2996 57.147C27.2996 56.6619 27.4877 56.2515 27.8764 55.9032C28.2526 55.5674 28.704 55.4058 29.2307 55.4058C29.8953 55.4058 30.5098 55.7042 30.8734 56.2266L30.4345 56.5251C30.1837 56.152 29.7198 55.9406 29.2307 55.9406C28.842 55.9406 28.5159 56.0649 28.2401 56.3012C27.9642 56.5375 27.8388 56.8236 27.8388 57.147C27.8388 57.4703 27.9767 57.7688 28.2401 57.9927C28.5034 58.2166 28.842 58.3534 29.2307 58.3534C29.7198 58.3534 30.1712 58.1419 30.4345 57.7688L30.8734 58.0673C30.5098 58.5772 29.8953 58.8882 29.2307 58.8882C28.7166 58.8882 28.2651 58.7265 27.8764 58.3907Z" fill="white"/>
<path d="M35.7012 58.9503C35.3626 58.9503 35.0365 58.8881 34.7105 58.7762C34.397 58.6518 34.1713 58.4901 34.0459 58.2787L34.5099 58.005C34.5726 58.117 34.7231 58.2165 34.9739 58.3035C35.2246 58.3906 35.4755 58.4279 35.7262 58.4279C36.1024 58.4279 36.3909 58.3782 36.604 58.2787C36.7921 58.1916 36.8799 58.0672 36.8799 57.9056C36.8799 57.7439 36.7921 57.6319 36.604 57.5573C36.5037 57.5076 36.3282 57.4703 36.1902 57.4578C36.115 57.4454 35.8893 57.4205 35.7764 57.4081C35.2748 57.3708 34.9237 57.3086 34.7105 57.2215C34.3218 57.0723 34.1337 56.7986 34.1462 56.4131C34.1462 56.0275 34.3343 55.7291 34.7231 55.5425C35.0115 55.4057 35.3877 55.3435 35.8266 55.3435C36.579 55.3435 37.0555 55.5549 37.2812 55.9902L36.8047 56.239C36.6793 55.9902 36.3532 55.8659 35.814 55.8659C35.5507 55.8659 35.2999 55.8907 35.0616 55.9654C34.8234 56.0275 34.6729 56.1644 34.6604 56.3385C34.6604 56.6494 34.8735 56.7489 35.3877 56.836C35.4754 56.8484 35.6008 56.8608 35.7639 56.8733C35.8391 56.8733 35.9394 56.8857 36.0774 56.9106C36.3909 56.9355 36.6417 56.9852 36.8423 57.0598C37.231 57.2091 37.4191 57.4827 37.4066 57.8682C37.4066 57.8807 37.4066 57.9056 37.4066 57.9304C37.3564 58.6642 36.5539 58.9503 35.7012 58.9503Z" fill="white"/>
<path d="M40.178 58.8879C39.6513 58.8879 39.1999 58.7138 38.8111 58.3905C38.4349 58.0547 38.2468 57.6442 38.2468 57.1592C38.2468 56.8358 38.3346 56.5373 38.5102 56.2762C38.6857 56.0025 38.924 55.7911 39.2249 55.6543C39.5259 55.505 39.8394 55.4304 40.178 55.4304C40.7047 55.4304 41.1561 55.6045 41.5448 55.9403C41.921 56.2761 42.1091 56.6866 42.1091 57.1716C42.1091 57.6567 41.921 58.0671 41.5323 58.4029C41.1561 58.7263 40.7047 58.8879 40.178 58.8879ZM39.1873 58.0049C39.4632 58.2412 39.7892 58.3656 40.178 58.3656C40.5667 58.3656 40.8927 58.2412 41.1561 58.0049C41.432 57.7686 41.5699 57.4825 41.5699 57.1592C41.5699 56.8358 41.432 56.5373 41.1561 56.3135C40.8802 56.0772 40.5542 55.9528 40.178 55.9528C39.7892 55.9528 39.4632 56.0772 39.1873 56.3135C38.9114 56.5498 38.786 56.8358 38.786 57.1592C38.786 57.4825 38.9114 57.7686 39.1873 58.0049Z" fill="white"/>
<path d="M43.0747 58.8882V55.4058H43.6139V58.3534H46.0216V58.8882H43.0747Z" fill="white"/>
<path d="M46.8867 57.1592V55.418H47.4259V57.1592C47.4259 57.495 47.5388 57.7686 47.777 58.0049C48.0153 58.2412 48.2912 58.3531 48.6298 58.3531C48.9683 58.3531 49.2442 58.2412 49.4825 58.0049C49.7207 57.7686 49.8336 57.495 49.8336 57.1592V55.418H50.3728V57.1592C50.3728 57.6318 50.1972 58.0422 49.8587 58.378C49.5201 58.7138 49.1063 58.8879 48.6298 58.8879C48.1532 58.8879 47.7394 58.7138 47.4009 58.378C47.0623 58.0422 46.8867 57.6318 46.8867 57.1592Z" fill="white"/>
<path d="M52.7304 58.8882V55.9406H51.2507V55.4058H54.7368V55.9406H53.2571V58.8882H52.7304Z" fill="white"/>
<path d="M56.1537 55.418V58.9004H55.6145V55.418H56.1537Z" fill="white"/>
<path d="M59.0505 58.8879C58.5239 58.8879 58.0724 58.7138 57.6837 58.3905C57.3075 58.0547 57.1194 57.6442 57.1194 57.1592C57.1194 56.8358 57.2072 56.5373 57.3827 56.2762C57.5583 56.0025 57.7965 55.7911 58.0975 55.6543C58.3985 55.505 58.712 55.4304 59.0505 55.4304C59.5772 55.4304 60.0286 55.6045 60.4174 55.9403C60.7936 56.2761 60.9817 56.6866 60.9817 57.1716C60.9817 57.6567 60.7936 58.0671 60.4048 58.4029C60.0286 58.7263 59.5772 58.8879 59.0505 58.8879ZM58.0599 58.0049C58.3358 58.2412 58.6618 58.3656 59.0505 58.3656C59.4393 58.3656 59.7653 58.2412 60.0286 58.0049C60.292 57.7686 60.4425 57.4825 60.4425 57.1592C60.4425 56.8358 60.3045 56.5373 60.0286 56.3135C59.7528 56.0896 59.4267 55.9528 59.0505 55.9528C58.6743 55.9528 58.3358 56.0772 58.0599 56.3135C57.784 56.5498 57.6586 56.8358 57.6586 57.1592C57.6586 57.4825 57.7965 57.7686 58.0599 58.0049Z" fill="white"/>
<path d="M62.4865 58.8881H61.9473V55.3186L64.9067 57.8433V55.4181H65.4459V59L62.4865 56.4753V58.8881Z" fill="white"/>
</svg>
